<?xml version="1.0" encoding="UTF-8"?>
<!DOCTYPE svg PUBLIC "-//W3C//DTD SVG 1.1//EN" "http://www.w3.org/Graphics/SVG/1.1/DTD/svg11.dtd">
<!-- Creator: CorelDRAW 2020 (64-Bit) -->
<svg xmlns="http://www.w3.org/2000/svg" xml:space="preserve" width="310px" height="218px" version="1.1" style="shape-rendering:geometricPrecision; text-rendering:geometricPrecision; image-rendering:optimizeQuality; fill-rule:evenodd; clip-rule:evenodd"
viewBox="0 0 30833 21670"
 xmlns:xlink="http://www.w3.org/1999/xlink"
 xmlns:xodm="http://www.corel.com/coreldraw/odm/2003">
 <defs>
  <style type="text/css">
   <![CDATA[
    .fil0 {fill:#144F5C;fill-rule:nonzero}
   ]]>
  </style>
 </defs>
 <g id="图层_x0020_1">
  <metadata id="CorelCorpID_0Corel-Layer"/>
  <polygon class="fil0" points="452,21604 0,21604 0,17748 452,17748 "/>
  <path id="1" class="fil0" d="M4392 21442c-284,152 -640,228 -1065,228 -549,0 -987,-176 -1317,-530 -330,-353 -496,-818 -496,-1391 0,-617 187,-1116 558,-1497 370,-380 841,-570 1411,-570 366,0 669,53 909,158l0 481c-276,-154 -581,-231 -914,-231 -443,0 -801,148 -1077,444 -275,296 -413,691 -413,1186 0,470 129,845 386,1124 258,279 594,418 1013,418 386,0 722,-86 1005,-259l0 439z"/>
  <path id="2" class="fil0" d="M8104 21442c-285,152 -640,228 -1065,228 -549,0 -987,-176 -1317,-530 -331,-353 -496,-818 -496,-1391 0,-617 187,-1116 557,-1497 371,-380 842,-570 1412,-570 366,0 668,53 909,158l0 481c-276,-154 -581,-231 -914,-231 -443,0 -802,148 -1077,444 -275,296 -413,691 -413,1186 0,470 128,845 385,1124 258,279 595,418 1014,418 386,0 722,-86 1005,-259l0 439z"/>
  <path id="3" class="fil0" d="M13763 17748l-1089 3856 -530 0 -794 -2817c-33,-121 -54,-252 -61,-393l-11 0c-10,132 -34,261 -70,387l-798 2823 -525 0 -1130 -3856 498 0 821 2958c34,123 55,252 64,386l14 0c8,-94 36,-223 83,-386l852 -2958 433 0 818 2979c29,102 50,222 64,361l11 0c7,-94 32,-218 73,-371l788 -2969 489 0z"/>
  <path id="4" class="fil0" d="M17402 21604l-500 0 -409 -1080 -1635 0 -385 1080 -502 0 1479 -3856 468 0 1484 3856zm-1057 -1487l-605 -1642c-19,-54 -40,-140 -59,-258l-11 0c-17,109 -39,195 -61,258l-601 1642 1337 0z"/>
  <path id="5" class="fil0" d="M22203 21604l-449 0 0 -2587c0,-204 12,-454 38,-750l-11 0c-44,174 -82,298 -116,374l-1317 2963 -222 0 -1314 -2941c-38,-87 -76,-218 -116,-396l-11 0c15,154 21,407 21,756l0 2581 -435 0 0 -3856 597 0 1183 2689c92,206 151,360 178,463l16 0c77,-212 139,-370 185,-474l1208 -2678 565 0 0 3856z"/>
  <polygon id="6" class="fil0" points="25799,18156 24686,18156 24686,21604 24234,21604 24234,18156 23123,18156 23123,17748 25799,17748 "/>
  <polygon id="7" class="fil0" points="27158,21604 26707,21604 26707,17748 27158,17748 "/>
  <path id="8" class="fil0" d="M28926 20144l0 1460 -452 0 0 -3856 1060 0c412,0 731,100 959,302 227,200 340,482 340,848 0,365 -126,664 -379,897 -251,233 -592,349 -1019,349l-509 0zm0 -1988l0 1581 474 0c311,0 550,-72 713,-214 164,-142 246,-344 246,-603 0,-510 -301,-764 -903,-764l-530 0z"/>
  <g id="_2469529646784">
   <g id="_图层_1-2" data-name="å¾å± 1">
    <path class="fil0" d="M19387 9880c-1229,0 -2072,-1514 -3053,-3265 -1219,-2181 -2601,-4654 -5005,-4654 -3436,0 -6362,5665 -6391,5723 -44,91 -157,124 -244,80 -91,-44 -124,-157 -80,-244 124,-241 3056,-5924 6715,-5924 2619,0 4056,2572 5326,4841 922,1652 1718,3075 2732,3075 2659,0 5358,-4443 5570,-5053 33,-94 135,-146 230,-113 94,33 146,135 113,230 -248,726 -3046,5300 -5913,5300l0 4z"/>
    <path class="fil0" d="M23348 14447c-91,0 -168,-70 -182,-161 -292,-2349 -2867,-13919 -5143,-13919 -1533,0 -3294,3582 -4994,7047 -1777,3619 -3454,7033 -5114,7033 -2663,0 -4618,-12778 -4833,-14237 -11,-99 54,-190 156,-208 99,-15 194,55 208,153 569,3874 2481,13923 4472,13923 1434,0 3138,-3472 4786,-6828 1831,-3724 3560,-7248 5322,-7248 2849,0 5355,13037 5505,14240 10,99 -59,190 -157,205 -8,0 -15,0 -22,0l-4 0z"/>
    <path class="fil0" d="M25460 14447c-91,0 -168,-70 -182,-161 -292,-2349 -2867,-13919 -5143,-13919 -1533,0 -3294,3582 -4994,7047 -1777,3615 -3454,7033 -5114,7033 -2667,0 -4618,-12778 -4833,-14237 -15,-99 54,-193 153,-208 98,-15 193,55 208,153 569,3874 2480,13923 4472,13923 1433,0 3137,-3472 4786,-6828 1831,-3724 3560,-7248 5322,-7248 2848,0 5358,13037 5504,14240 11,99 -58,190 -157,205 -7,0 -15,0 -22,0l0 0z"/>
    <path class="fil0" d="M27569 14447c-92,0 -168,-70 -183,-161 -292,-2349 -2867,-13919 -5143,-13919 -1532,0 -3294,3582 -4994,7047 -1776,3619 -3454,7033 -5114,7033 -2663,0 -4618,-12778 -4833,-14237 -15,-99 55,-193 153,-208 99,-15 193,55 208,153 569,3874 2481,13923 4472,13923 1434,0 3137,-3472 4786,-6828 1831,-3724 3560,-7248 5322,-7248 2849,0 5358,13037 5508,14240 11,99 -58,190 -157,205 -7,0 -15,0 -22,0l-3 0z"/>
    <path class="fil0" d="M19478 12306c-2477,0 -3914,-2459 -5183,-4626 -1007,-1721 -1963,-3348 -3221,-3348 -2437,0 -5337,6245 -5366,6307 -44,91 -150,131 -241,91 -91,-44 -131,-150 -91,-241 124,-266 3031,-6518 5698,-6518 1470,0 2473,1714 3534,3531 1219,2082 2601,4446 4866,4446 3021,0 6322,-4767 6355,-4818 58,-84 171,-106 255,-48 84,58 106,172 47,252 -138,204 -3439,4975 -6653,4975l0 -3z"/>
   </g>
  </g>
 </g>
</svg>
